<?xml version="1.0" encoding="utf-8"?>
<!-- Generator: Adobe Illustrator 26.5.0, SVG Export Plug-In . SVG Version: 6.00 Build 0)  -->
<svg version="1.1" id="Capa_1" xmlns="http://www.w3.org/2000/svg" xmlns:xlink="http://www.w3.org/1999/xlink" x="0px" y="0px"
	 viewBox="0 0 800 600" style="enable-background:new 0 0 800 600;" xml:space="preserve">
<style type="text/css">
	.st0{fill:#192C55;}
	.st1{fill:#274366;}
	.st2{fill:#C22F24;}
	.st3{fill:#FFFFFF;}
</style>
<g>
	<g>
		<path class="st0" d="M258.2,283.2c0,46-32.3,77.5-95.6,77.5H94.2c0,0,0-3.3,0-6c16.8,0,20.8-11.5,20.8-25.5v-91.9
			c0-13.9-4-25.5-20.8-25.5c0-2.7,0-6.2,0-6.2h68.4C225.9,205.7,258.2,237.3,258.2,283.2z M219.1,283.2c0-48.3-20.6-68.6-57.3-68.6
			h-9.3V352h9.3C198.5,352,219.1,331.4,219.1,283.2z"/>
		<path class="st0" d="M162.6,362.3h-70v-9.2h1.6c13.3,0,19.2-7.4,19.2-23.8v-91.9c0-16.5-5.9-23.8-19.2-23.8h-1.6v-9.4h70
			c60.9,0,97.2,29.6,97.2,79.1C259.9,332.7,223.5,362.3,162.6,362.3z M95.8,359h66.8c29.9,0,54.3-7.3,70.5-21.1
			c15.4-13.1,23.5-32,23.5-54.8c0-47.5-35.1-75.9-94-75.9H95.8v3c14,0.6,20.8,9.5,20.8,27v91.9c0,17.6-6.8,26.4-20.8,27V359z
			 M161.7,353.6h-10.9V212.9h10.9c39.7,0,58.9,23,58.9,70.2C220.7,330.6,201.4,353.6,161.7,353.6z M154,350.4h7.7
			c37.5,0,55.7-22,55.7-67.2c0-45.1-18.2-67-55.7-67H154V350.4z"/>
	</g>
	<g>
		<path class="st0" d="M332.9,360.6c0,0,0-3.5,0-6.2c16.8,0,18.4-8,11.5-25.5l-5.5-12.4H285c0,0-2.2,5.5-4.9,12.4
			c-6.4,18.2,0.2,25.5,17,25.5c0,4.6,0,6.2,0,6.2h-54.5c0,0,0-3.5,0-6.2c16.8,0,22.6-12,27.9-25.5l48.5-123.3h10.4L383.1,329
			c6.6,14.2,9.3,25.5,26.1,25.5c0,4.6,0,6.2,0,6.2H332.9z M335.1,307.7L310.5,252l-21.9,55.8H335.1z"/>
		<path class="st0" d="M410.8,362.3h-79.6v-9.4h1.6c6.6,0,10.7-1.3,12.5-3.9c2.3-3.3,1.5-9.3-2.5-19.4l-5.1-11.4h-51.7
			c-0.8,1.9-2.5,6.3-4.5,11.4c-2.9,8.2-3.1,14.2-0.4,17.9c2.5,3.6,7.8,5.3,16,5.3h1.6v9.4h-57.7v-9.4h1.6
			c15.5,0,20.9-10.6,26.4-24.4L318,204.1h12.6l54,124.3c0.8,1.7,1.6,3.4,2.3,5.1c5.2,11.7,8.6,19.4,22.3,19.4h1.6V362.3z M334.5,359
			h73.1v-3c-14.5-0.6-18.6-9.8-23.7-21.3c-0.7-1.6-1.5-3.3-2.3-5.1l-53.2-122.4h-8.3l-48.1,122.3c-5.5,14-11.5,25.7-27.8,26.4v3
			h51.2v-3c-8.4-0.2-14-2.4-17-6.7c-3.3-4.7-3.3-11.5,0.1-20.9c2.7-6.9,4.9-12.5,4.9-12.5l0.4-1h55.9l6,13.4
			c4.5,11.4,5.1,18.1,2.2,22.4c-2.3,3.4-6.6,5.1-13.5,5.3V359z M337.5,309.3h-51.3l24.2-61.6L337.5,309.3z M290.9,306.1h41.7l-22-50
			L290.9,306.1z"/>
	</g>
	<g>
		<path class="st0" d="M555.8,312.8l-3.5,47.8H415.9c0,0,0-3.3,0-6c16.8,0,20.8-11.5,20.8-25.5v-91.9c0-13.9-4-25.5-20.8-25.5
			c0-2.7,0-6.2,0-6.2h79c0,0,0,3.5,0,6.2c-16.8,0-20.8,11.5-20.8,25.5V352h37.9c19,0,29.9-16.8,36.7-39.2
			C553.3,312.8,555.8,312.8,555.8,312.8z"/>
		<path class="st0" d="M553.7,362.3H414.3v-9.2h1.6c13.3,0,19.2-7.4,19.2-23.8v-91.9c0-16.5-5.9-23.8-19.2-23.8h-1.6v-9.4h82.2v9.4
			h-1.6c-13.3,0-19.2,7.4-19.2,23.8v113.1h36.2c15.8,0,27.3-12.4,35.2-38l0.3-1.1h10L553.7,362.3z M417.5,359h133.3l3.3-44.6h-4.2
			c-8.3,26.4-20.7,39.2-37.9,39.2h-39.5V237.3c0-17.6,6.8-26.4,20.8-27v-3h-75.8v3c14,0.6,20.8,9.5,20.8,27v91.9
			c0,17.6-6.8,26.4-20.8,27V359z"/>
	</g>
	<g>
		<path class="st0" d="M697.4,205.7c0,0,0,3.5,0,6.2c-12,0-19.7,11.7-27.4,25.5l-31.2,57.1v34.8c0,13.9,4,25.5,20.8,25.5
			c0,4.6,0,6,0,6h-78.4c0,0,0-3.3,0-6c17,0,20.8-11.5,20.8-25.5V302l-39.2-64.6c-8.9-13.7-17-25.5-27-25.5c0-4.6,0-6.2,0-6.2h76.4
			c0,0,0,3.5,0,6.2c-15.3,0-20.4,8.2-10.6,25.5l29.9,52l28.8-52c8.2-15.5,4.4-25.5-13.1-25.5c0-4.6,0-6.2,0-6.2H697.4z"/>
		<path class="st0" d="M661.2,362.3h-81.6v-9.2h1.6c13.5,0,19.2-7.1,19.2-23.8v-26.8l-38.9-64.3c-8.7-13.5-16.7-24.7-25.6-24.7h-1.6
			v-9.4h79.6v9.4h-1.6c-6.7,0-11.1,1.6-12.9,4.8c-2.2,3.8-0.9,10.1,3.7,18.3l28.5,49.5l27.4-49.5c4.1-7.7,5-13.9,2.7-17.8
			c-2.1-3.5-7-5.3-14.3-5.3h-1.6v-9.4h53.5v9.4h-1.6c-11.2,0-18.7,11.7-26,24.6l-31,56.7v34.3c0,16.5,5.9,23.8,19.2,23.8h1.6V362.3z
			 M582.8,359H658v-2.8c-14-0.6-20.8-9.5-20.8-27V294l0.2-0.4l31.2-57.1c7.5-13.3,15.2-25.2,27.3-26.2v-3h-47v3
			c7.7,0.3,12.9,2.6,15.5,6.8c3,5,2.1,12-2.6,21l-30.2,54.5l-31.3-54.5c-5.3-9.4-6.5-16.6-3.7-21.5c2.3-3.9,7-6.1,14.1-6.3v-3h-73.1
			v3.1c9.8,1.1,17.7,12,26.7,26.1l39.4,65.1v27.7c0,11.3-2.2,26.2-20.8,27V359z"/>
	</g>
</g>
<rect x="88.8" y="517.4" class="st1" width="203.6" height="9.6"/>
<g>
	<path class="st0" d="M496.3,527.3H292.1v-10.1h204.1V527.3z M292.6,526.8h203.1v-9.1H292.6V526.8z"/>
</g>
<rect x="496" y="517.4" class="st2" width="203.6" height="9.6"/>
<path class="st0" d="M689.5,471H97.9c-4.7,0-8.5-3.8-8.5-8.5V391c0-4.7,3.8-8.5,8.5-8.5h591.6c4.7,0,8.5,3.8,8.5,8.5v71.5
	C698.1,467.1,694.2,471,689.5,471z"/>
<g>
	<g>
		<path class="st3" d="M141.2,453.4v-48.1H160c6.6,0,12,1.9,16.3,5.6c4.3,3.8,6.4,8.6,6.4,14.4v8c0,5.9-2.1,10.7-6.4,14.4
			c-4.3,3.7-9.7,5.6-16.3,5.6H141.2z M152,412.8V446h8c3.6,0,6.4-1.2,8.6-3.6c2.2-2.4,3.3-5.4,3.3-9.1v-8c0-3.7-1.1-6.7-3.3-9
			c-2.2-2.4-5-3.5-8.6-3.5H152z"/>
		<path class="st3" d="M160,454.2h-19.6v-49.7H160c6.8,0,12.4,2,16.8,5.8c4.4,3.9,6.7,9,6.7,15.1v8c0,6.1-2.2,11.2-6.7,15.1
			C172.4,452.3,166.8,454.2,160,454.2z M142,452.6h18c6.4,0,11.7-1.8,15.8-5.4c4.1-3.6,6.1-8.2,6.1-13.8v-8c0-5.6-2.1-10.3-6.1-13.8
			c-4.1-3.6-9.4-5.4-15.8-5.4h-18V452.6z M160,446.8h-8.8V412h8.8c3.8,0,6.9,1.3,9.2,3.8c2.3,2.5,3.5,5.7,3.5,9.6v8
			c0,3.9-1.2,7.1-3.5,9.6C166.9,445.6,163.8,446.8,160,446.8z M152.8,445.2h7.2c3.4,0,6-1.1,8-3.3c2-2.2,3-5.1,3-8.6v-8
			c0-3.5-1-6.3-3-8.5c-2-2.2-4.7-3.3-8-3.3h-7.2V445.2z"/>
	</g>
	<g>
		<path class="st3" d="M225.7,453.4h-10.8v-48.1h10.8V453.4z"/>
		<path class="st3" d="M226.5,454.2h-12.4v-49.7h12.4V454.2z M215.7,452.6h9.2v-46.5h-9.2V452.6z"/>
	</g>
	<g>
		<path class="st3" d="M270,436v17.4h-10.8v-48.1h20.6c6.2,0,11.1,1.4,14.6,4.2c3.6,2.8,5.3,6.5,5.3,11.1s-1.8,8.3-5.3,11.1
			c-3.6,2.8-8.4,4.2-14.6,4.2H270z M270,428.6h9.8c3,0,5.3-0.7,6.9-2.2c1.6-1.5,2.3-3.3,2.3-5.6c0-2.3-0.8-4.2-2.3-5.7
			c-1.5-1.5-3.8-2.3-6.9-2.3H270V428.6z"/>
		<path class="st3" d="M270.8,454.2h-12.4v-49.7h21.4c6.4,0,11.5,1.5,15.1,4.4c3.7,3,5.6,6.9,5.6,11.8s-1.9,8.8-5.6,11.7
			c-3.7,2.9-8.8,4.4-15.1,4.4h-9V454.2z M260,452.6h9.2v-17.4h10.6c6,0,10.7-1.4,14.1-4c3.4-2.7,5-6.1,5-10.5c0-4.4-1.6-7.8-5-10.5
			c-3.4-2.7-8.2-4.1-14.1-4.1H260V452.6z M279.8,429.4h-10.6V412h10.6c3.2,0,5.7,0.8,7.4,2.5c1.7,1.7,2.6,3.8,2.6,6.3
			c0,2.5-0.9,4.6-2.6,6.2C285.5,428.6,283,429.4,279.8,429.4z M270.8,427.8h9c2.8,0,4.9-0.7,6.3-2c1.4-1.3,2.1-3,2.1-5
			c0-2.1-0.7-3.8-2.1-5.2c-1.4-1.3-3.5-2-6.3-2h-9V427.8z"/>
	</g>
	<g>
		<path class="st3" d="M373,405.3v31.5c0,5.4-2,9.7-6,12.7c-4,3.1-9.2,4.6-15.7,4.6c-6.4,0-11.6-1.5-15.6-4.6c-4-3.1-6-7.3-6-12.7
			v-31.5h10.9v31.5c0,3.2,1,5.7,2.9,7.4s4.5,2.5,7.8,2.5c3.3,0,6-0.8,7.9-2.5c2-1.7,2.9-4.1,2.9-7.4v-31.5H373z"/>
		<path class="st3" d="M351.3,454.9c-6.6,0-12-1.6-16.1-4.8c-4.2-3.2-6.3-7.7-6.3-13.4v-32.3h12.5v32.3c0,3,0.9,5.2,2.6,6.8
			c1.8,1.6,4.2,2.3,7.3,2.3c3.1,0,5.6-0.8,7.4-2.3c1.8-1.5,2.6-3.8,2.6-6.8v-32.3h12.5v32.3c0,5.7-2.1,10.1-6.4,13.4
			C363.3,453.3,357.9,454.9,351.3,454.9z M330.6,406.2v30.7c0,5.2,1.9,9.1,5.7,12.1c3.8,2.9,8.9,4.4,15.1,4.4
			c6.2,0,11.3-1.5,15.2-4.4c3.9-2.9,5.7-6.9,5.7-12.1v-30.7H363v30.7c0,3.4-1.1,6.1-3.2,8c-2.1,1.8-4.9,2.7-8.5,2.7
			c-3.5,0-6.3-0.9-8.4-2.7c-2.1-1.8-3.2-4.5-3.2-8v-30.7H330.6z"/>
	</g>
	<g>
		<path class="st3" d="M442.8,412.8h-15.4v40.7h-10.8v-40.7h-15.2v-7.4h41.4V412.8z"/>
		<path class="st3" d="M428.2,454.2h-12.4v-40.7h-15.2v-9h43v9h-15.4V454.2z M417.4,452.6h9.2V412H442v-5.8h-39.8v5.8h15.2V452.6z"
			/>
	</g>
	<g>
		<path class="st3" d="M495.6,443.1h-17.5l-3.6,10.4h-11.3l18.2-48.1h11.1l18.1,48.1h-11.3L495.6,443.1z M480.8,435.5h12.2l-6-16.9
			h-0.2L480.8,435.5z"/>
		<path class="st3" d="M511.7,454.2h-13l-3.7-10.4h-16.3l-3.6,10.4h-13l18.8-49.7H493L511.7,454.2z M499.8,452.6h9.6l-17.5-46.5h-10
			l-17.6,46.5h9.6l3.6-10.4h18.6L499.8,452.6z M494.1,436.3h-14.5l6.6-18.6h1.4L494.1,436.3z M481.9,434.7h9.9l-4.9-14L481.9,434.7z
			"/>
	</g>
	<g>
		<path class="st3" d="M538.5,453.4v-48.1h18.8c6.6,0,12,1.9,16.3,5.6c4.3,3.8,6.4,8.6,6.4,14.4v8c0,5.9-2.1,10.7-6.4,14.4
			c-4.3,3.7-9.7,5.6-16.3,5.6H538.5z M549.3,412.8V446h8c3.6,0,6.4-1.2,8.6-3.6c2.2-2.4,3.3-5.4,3.3-9.1v-8c0-3.7-1.1-6.7-3.3-9
			c-2.2-2.4-5-3.5-8.6-3.5H549.3z"/>
		<path class="st3" d="M557.3,454.2h-19.6v-49.7h19.6c6.8,0,12.4,2,16.8,5.8c4.4,3.9,6.7,9,6.7,15.1v8c0,6.1-2.3,11.2-6.7,15.1
			C569.8,452.3,564.1,454.2,557.3,454.2z M539.3,452.6h18c6.4,0,11.7-1.8,15.8-5.4c4.1-3.6,6.1-8.2,6.1-13.8v-8
			c0-5.6-2.1-10.3-6.1-13.8c-4.1-3.6-9.4-5.4-15.8-5.4h-18V452.6z M557.3,446.8h-8.8V412h8.8c3.8,0,6.9,1.3,9.2,3.8
			c2.3,2.5,3.5,5.7,3.5,9.6v8c0,3.9-1.2,7.1-3.5,9.6C564.2,445.6,561.1,446.8,557.3,446.8z M550.1,445.2h7.2c3.4,0,6-1.1,8-3.3
			c2-2.2,3-5.1,3-8.6v-8c0-3.5-1-6.3-3-8.5c-2-2.2-4.7-3.3-8-3.3h-7.2V445.2z"/>
	</g>
	<g>
		<path class="st3" d="M655.1,433.7c0,5.9-2.1,10.8-6.3,14.6c-4.2,3.8-9.6,5.8-16.3,5.8c-6.7,0-12.1-1.9-16.2-5.8
			c-4.1-3.9-6.2-8.7-6.2-14.6v-8.7c0-5.9,2.1-10.7,6.2-14.6c4.1-3.9,9.5-5.8,16.2-5.8c6.7,0,12.1,1.9,16.3,5.8
			c4.2,3.9,6.3,8.7,6.3,14.6V433.7z M644.3,425c0-3.7-1.1-6.8-3.1-9.2c-2.1-2.4-5-3.6-8.7-3.6c-3.7,0-6.5,1.2-8.5,3.6
			s-3.1,5.5-3.1,9.2v8.7c0,3.8,1,6.9,3.1,9.3c2,2.4,4.9,3.6,8.6,3.6c3.7,0,6.6-1.2,8.7-3.6c2.1-2.4,3.1-5.5,3.1-9.3V425z"/>
		<path class="st3" d="M632.6,454.9c-6.8,0-12.5-2-16.8-6c-4.3-4-6.5-9.1-6.5-15.2v-8.7c0-6.1,2.2-11.2,6.5-15.2c4.3-4,9.9-6,16.7-6
			c6.9,0,12.6,2,16.9,6c4.4,4,6.6,9.1,6.6,15.2v8.7c0,6.1-2.2,11.3-6.5,15.2C645.1,452.9,639.4,454.9,632.6,454.9z M632.5,405.5
			c-6.4,0-11.7,1.9-15.6,5.6c-3.9,3.7-5.9,8.4-5.9,14v8.7c0,5.6,2,10.4,6,14c4,3.7,9.3,5.6,15.7,5.6c6.5,0,11.8-1.9,15.8-5.6
			c4-3.7,6-8.4,6-14.1v-8.7c0-5.6-2-10.3-6-14C644.2,407.3,638.9,405.5,632.5,405.5z M632.6,447.4c-3.9,0-7-1.3-9.2-3.9
			c-2.2-2.5-3.3-5.8-3.3-9.8V425c0-3.9,1.1-7.2,3.2-9.7c2.2-2.6,5.3-3.9,9.2-3.9c3.9,0,7.1,1.3,9.3,3.9c2.2,2.5,3.3,5.8,3.3,9.7v8.7
			c0,4-1.1,7.3-3.3,9.8C639.6,446.1,636.5,447.4,632.6,447.4z M632.5,413c-3.4,0-6,1.1-7.9,3.3c-1.9,2.2-2.9,5.2-2.9,8.7v8.7
			c0,3.6,1,6.6,2.9,8.8c1.9,2.2,4.5,3.3,8,3.3c3.5,0,6.1-1.1,8.1-3.3c1.9-2.2,2.9-5.2,2.9-8.8V425c0-3.5-1-6.4-3-8.7
			C638.6,414.1,636,413,632.5,413z"/>
	</g>
</g>
<g>
	<g>
		<path class="st0" d="M137.8,175.5c-7.4,0-13.8-1.1-19.3-3.4c-5.5-2.3-10.1-5.4-13.7-9.4c-3.6-4-6.3-8.7-8.1-14.1
			c-1.8-5.4-2.7-11.2-2.7-17.4c0-5.2,0.9-10.4,2.6-15.7c1.8-5.3,4.5-10,8.3-14.3c3.8-4.3,8.6-7.7,14.5-10.4c5.9-2.7,12.9-4,21.1-4
			c4.5,0,8.7,0.3,12.6,0.9c3.9,0.6,8.1,1.5,12.7,2.8c0.2,2.4,0.5,5.4,1.1,9.1c0.5,3.7,1.3,7.3,2.2,10.8c-0.4,0.1-1,0.2-1.7,0.3
			c-0.7,0.1-1.2,0.2-1.6,0.2c-0.7,0-1.3-0.1-1.8-0.3c-0.5-0.2-0.8-0.7-1-1.4c-1-2.9-2.1-5.3-3.3-7.3c-1.2-2-2.7-3.6-4.4-4.7
			c-1.7-1.2-3.7-2-6-2.6s-5-0.8-8-0.8c-4.7,0-8.9,0.8-12.6,2.4c-3.6,1.6-6.7,3.9-9.1,7c-2.5,3-4.3,6.7-5.6,10.9
			c-1.3,4.3-1.9,9.1-1.9,14.4c0,5.7,0.8,11,2.3,15.9c1.5,4.9,3.6,9.2,6.3,12.8c2.7,3.6,5.9,6.4,9.5,8.4c3.7,2,7.7,3,12,3
			c3.5,0,6.5-0.3,9-1c2.5-0.7,4.6-1.7,6.5-3c1.8-1.4,3.3-3.1,4.6-5.2c1.3-2.1,2.4-4.6,3.5-7.4c0.3-0.7,0.7-1.2,1.3-1.5
			c0.6-0.3,1.2-0.5,1.8-0.5c0.4,0,1,0.1,1.6,0.2c0.7,0.1,1.2,0.3,1.6,0.5c-0.5,1.5-1.1,3.2-1.6,5.1c-0.6,1.9-1.2,3.8-1.8,5.8
			c-0.6,2-1.2,3.9-1.6,5.9c-0.5,2-0.9,3.9-1.3,5.7c-4.3,0.8-8.7,1.4-13.2,1.7C148.1,175.3,143.1,175.5,137.8,175.5z"/>
		<path class="st0" d="M137.8,177.1c-7.6,0-14.3-1.2-20-3.5c-5.7-2.4-10.5-5.7-14.3-9.8c-3.7-4.1-6.6-9.1-8.4-14.7
			c-1.8-5.5-2.8-11.6-2.8-17.9c0-5.3,0.9-10.8,2.7-16.2c1.8-5.4,4.7-10.4,8.6-14.8c3.9-4.4,9-8,15-10.8c6.1-2.8,13.4-4.2,21.7-4.2
			c4.5,0,8.8,0.3,12.8,0.9c3.9,0.6,8.3,1.6,12.9,2.8l1.1,0.3l0.1,1.1c0.2,2.3,0.5,5.3,1,9c0.5,3.6,1.3,7.2,2.2,10.6l0.5,1.7
			l-1.7,0.3c-0.4,0.1-1,0.2-1.7,0.3c-0.8,0.2-1.4,0.2-1.9,0.2c-0.9,0-1.8-0.2-2.4-0.5c-0.6-0.3-1.5-1-1.9-2.5
			c-0.9-2.6-1.9-5-3.1-6.8c-1.1-1.8-2.4-3.2-4-4.3c-1.5-1.1-3.4-1.8-5.4-2.3c-2.1-0.5-4.7-0.7-7.7-0.7c-4.5,0-8.5,0.8-11.9,2.3
			c-3.4,1.5-6.3,3.7-8.6,6.5c-2.3,2.9-4.1,6.3-5.3,10.4c-1.2,4.1-1.8,8.8-1.8,14c0,5.5,0.8,10.7,2.2,15.4c1.5,4.7,3.5,8.9,6.1,12.3
			c2.5,3.4,5.6,6.1,9,8c3.4,1.9,7.2,2.8,11.2,2.8c3.4,0,6.3-0.3,8.6-0.9c2.3-0.6,4.3-1.5,5.9-2.8c1.6-1.2,3-2.8,4.2-4.7
			c1.2-2,2.4-4.4,3.4-7.1c0.4-1.1,1.1-1.9,2-2.4c0.8-0.4,1.7-0.7,2.5-0.7c0.5,0,1.2,0.1,2,0.2c0.8,0.2,1.4,0.3,1.9,0.5l1.4,0.6
			l-0.5,1.5c-0.5,1.5-1.1,3.2-1.6,5c-0.6,1.9-1.2,3.8-1.8,5.8c-0.6,1.9-1.1,3.9-1.6,5.8c-0.5,1.9-0.9,3.8-1.2,5.6l-0.2,1.1l-1.1,0.2
			c-4.3,0.8-8.8,1.4-13.3,1.7C148.2,176.9,143.2,177.1,137.8,177.1z M140.4,88.4c-7.9,0-14.7,1.3-20.4,3.9
			c-5.6,2.6-10.3,5.9-13.9,10c-3.6,4.1-6.3,8.7-8,13.7c-1.7,5.1-2.5,10.2-2.5,15.2c0,6,0.9,11.7,2.6,16.9c1.7,5.2,4.3,9.7,7.8,13.5
			c3.4,3.8,7.8,6.8,13.1,9c5.3,2.2,11.6,3.3,18.7,3.3c5.3,0,10.2-0.2,14.6-0.5c4-0.3,8-0.8,11.9-1.5c0.3-1.5,0.7-3.1,1.1-4.7
			c0.5-2,1-4,1.7-6c0.6-2,1.2-3.9,1.8-5.8c0.4-1.2,0.7-2.4,1.1-3.5c-0.6-0.1-1-0.1-1.2-0.1c-0.3,0-0.7,0.1-1,0.3
			c-0.1,0.1-0.3,0.2-0.5,0.7c-1.1,2.9-2.3,5.4-3.6,7.6c-1.4,2.3-3.1,4.2-5,5.7c-2,1.5-4.3,2.6-7,3.3c-2.6,0.7-5.8,1-9.4,1
			c-4.6,0-8.8-1.1-12.8-3.2c-3.9-2.1-7.3-5.1-10.1-8.9c-2.8-3.7-5-8.2-6.6-13.3c-1.6-5-2.4-10.6-2.4-16.4c0-5.5,0.7-10.5,2-14.9
			c1.3-4.4,3.3-8.3,5.9-11.5c2.6-3.2,5.9-5.7,9.7-7.4c3.8-1.7,8.3-2.6,13.2-2.6c3.2,0,6,0.3,8.4,0.8c2.5,0.6,4.7,1.5,6.5,2.8
			c1.9,1.3,3.5,3.1,4.9,5.2c1.3,2.1,2.4,4.6,3.5,7.6c0.1,0.4,0.2,0.5,0.2,0.5c0.2,0.1,0.6,0.2,1.1,0.2c0.1,0,0.5,0,1.3-0.2
			c0,0,0,0,0,0c-0.8-3-1.4-6.1-1.8-9.3c-0.4-3.1-0.8-5.8-1-8c-4.1-1.1-7.9-1.9-11.4-2.4C148.9,88.7,144.8,88.4,140.4,88.4z"/>
	</g>
	<g>
		<path class="st0" d="M214.1,135.7h-5.7v27.5c0,2,0.9,3.4,2.6,4.3c1.7,0.8,4.6,1.5,8.8,2c1.2,0.2,1.8,1.1,1.8,2.6
			c0,0.7-0.1,1.5-0.3,2.4c-2.5-0.2-5.7-0.3-9.5-0.5c-3.8-0.1-8-0.2-12.4-0.2c-3.2,0-6.2,0.1-9.1,0.2c-2.9,0.1-5.7,0.3-8.2,0.5
			c-0.2-0.4-0.3-0.7-0.3-1.2c0-0.4,0-0.8,0-1.1c0-1.5,0.5-2.3,1.4-2.5c1.8-0.3,3.3-0.7,4.5-1c1.1-0.3,2-0.7,2.6-1.1
			c0.6-0.4,1-0.9,1.3-1.4c0.2-0.6,0.3-1.3,0.3-2.2V98.2c0-1.8-0.6-3-1.9-3.8c-1.3-0.8-3.7-1.4-7.3-1.8c-0.4-0.2-0.8-0.4-1.1-0.8
			c-0.3-0.3-0.4-1-0.4-1.8c0-0.3,0-0.7,0-1.2c0-0.4,0.1-0.8,0.3-1.1c2.5,0.2,5.3,0.3,8.5,0.5s6.1,0.2,8.6,0.2h19.9
			c4.6,0,8.8,0.6,12.5,1.7c3.7,1.1,6.8,2.8,9.4,4.9c2.6,2.1,4.6,4.6,5.9,7.5c1.4,2.9,2,6.1,2,9.6c0,4.7-1.4,8.9-4.3,12.7
			c-2.9,3.8-6.8,6.7-11.8,8.6l20.7,30.1c1.6,2.3,3.4,3.9,5.5,4.7c2.1,0.9,4,1.5,5.7,2c0.4,0.1,0.8,0.3,1.1,0.6
			c0.3,0.3,0.4,0.9,0.4,1.6c0,0.4,0,0.7,0,1.2c0,0.4-0.1,0.9-0.3,1.3c-1-0.1-2.3-0.2-4.1-0.2c-1.8,0-3.6-0.1-5.5-0.2
			c-1.9-0.1-3.8-0.2-5.7-0.2c-1.9,0-3.4-0.1-4.7-0.1c-1.8,0-3.7-0.8-5.5-2.3c-1.8-1.5-3.6-3.6-5.4-6.1L214.1,135.7z M212.4,129.2
			c2.7,0,5.2-0.3,7.4-0.8c2.2-0.5,4.1-1.4,5.7-2.7c1.6-1.3,2.8-3,3.6-5.1c0.8-2.1,1.3-4.8,1.3-8c0-5.4-1.3-9.7-4-12.9
			c-2.6-3.2-7.3-4.7-14-4.7h-3.9v34.2H212.4z"/>
		<path class="st0" d="M266.4,176.7l-1.2-0.1c-0.9-0.1-2.2-0.1-4-0.2c-1.8,0-3.6-0.1-5.5-0.2c-1.9-0.1-3.8-0.2-5.6-0.2
			c-1.9,0-3.4-0.1-4.6-0.1c-2.2,0-4.4-0.9-6.6-2.7c-1.9-1.6-3.9-3.8-5.7-6.4l-19.9-29.4h-3.2v25.9c0,1.4,0.5,2.3,1.7,2.8
			c1.5,0.8,4.3,1.4,8.3,1.9c1,0.1,3.2,0.8,3.2,4.2c0,0.8-0.1,1.7-0.3,2.7l-0.3,1.4l-1.4-0.1c-2.5-0.2-5.7-0.3-9.5-0.5
			c-3.8-0.1-7.9-0.2-12.4-0.2c-3.1,0-6.2,0.1-9.1,0.2c-2.9,0.1-5.7,0.3-8.2,0.5l-1.1,0.1l-0.5-1c-0.3-0.6-0.4-1.2-0.4-1.9v-1.1
			c0-3.2,1.9-3.9,2.8-4.1c1.8-0.3,3.3-0.7,4.3-1c1.2-0.3,1.9-0.6,2.2-0.9c0.3-0.2,0.5-0.4,0.6-0.7c0.1-0.3,0.2-0.8,0.2-1.6V98.2
			c0-1.5-0.6-2.1-1.1-2.4c-0.7-0.5-2.5-1.1-6.7-1.6l-0.4-0.1c-0.7-0.3-1.3-0.7-1.7-1.3c-0.5-0.6-0.7-1.5-0.7-2.8v-1.2
			c0-0.8,0.2-1.4,0.5-2l0.5-0.8l0.9,0.1c2.4,0.2,5.1,0.3,8.4,0.5c3.2,0.1,6,0.2,8.6,0.2h19.9c4.8,0,9.2,0.6,13,1.8
			c3.9,1.2,7.2,2.9,10,5.2c2.8,2.3,4.9,5,6.4,8.1c1.5,3.1,2.2,6.6,2.2,10.3c0,5-1.5,9.6-4.6,13.7c-2.7,3.6-6.2,6.4-10.6,8.4
			l19.5,28.5c1.4,2,3,3.4,4.8,4.2c2,0.8,3.8,1.5,5.5,1.9c0.7,0.1,1.4,0.5,1.9,1.1c0.5,0.6,0.8,1.5,0.8,2.7v1.2
			c0,0.6-0.1,1.3-0.4,1.9L266.4,176.7z M206.9,134.1h8.1l20.9,30.9c1.7,2.4,3.4,4.4,5.1,5.8c1.5,1.3,3.1,1.9,4.5,1.9
			c1.2,0,2.8,0,4.7,0.1c1.9,0,3.8,0.1,5.7,0.2c1.9,0.1,3.7,0.2,5.4,0.2c1,0,1.9,0.1,2.7,0.1v-0.8c0-0.4,0-0.6-0.1-0.7
			c0,0-0.1,0-0.1,0c-1.9-0.5-3.9-1.2-6-2.1c-2.3-1-4.4-2.8-6.2-5.3l-21.8-31.8l1.9-0.7c4.7-1.8,8.4-4.5,11.1-8.1
			c2.7-3.6,4-7.4,4-11.7c0-3.3-0.6-6.3-1.9-8.9c-1.3-2.7-3.1-5-5.5-6.9c-2.4-2-5.4-3.5-8.9-4.6c-3.5-1.1-7.6-1.6-12-1.6h-19.9
			c-2.6,0-5.5-0.1-8.7-0.2c-2.7-0.1-5-0.2-7.1-0.4v0.5c0,0.7,0.1,0.9,0.1,0.9c0,0,0.1,0.1,0.2,0.1c3.7,0.5,6.3,1.1,7.7,2
			c1.2,0.8,2.7,2.3,2.7,5.2v65.9c0,1.1-0.1,2-0.4,2.7c-0.3,0.9-1,1.6-1.9,2.2c-0.8,0.5-1.8,0.9-3.1,1.3c-1.2,0.3-2.7,0.7-4.6,1
			c0,0,0,0,0,0c0,0-0.1,0.2-0.1,0.9v0.5c2.1-0.1,4.4-0.3,6.8-0.4c2.9-0.1,6.1-0.2,9.2-0.2c4.5,0,8.7,0.1,12.5,0.2
			c3.2,0.1,5.8,0.2,8.1,0.4c0-0.2,0-0.5,0-0.7c0-1-0.2-1-0.5-1c-4.3-0.6-7.3-1.3-9.2-2.2c-2.3-1.1-3.5-3.1-3.5-5.7V134.1z
			 M212.4,130.8h-5.6V93.3h5.6c7.1,0,12.2,1.8,15.2,5.3c2.9,3.4,4.3,8.1,4.3,13.9c0,3.4-0.5,6.3-1.4,8.6c-0.9,2.4-2.3,4.3-4.1,5.7
			c-1.8,1.4-3.9,2.4-6.3,3C217.9,130.5,215.3,130.8,212.4,130.8z M210.1,127.6h2.3c2.6,0,4.9-0.3,7-0.7c1.9-0.5,3.6-1.3,5-2.4
			c1.3-1.1,2.4-2.6,3.1-4.4c0.8-1.9,1.1-4.4,1.1-7.4c0-5-1.2-9-3.6-11.9c-2.3-2.8-6.6-4.2-12.7-4.2h-2.3V127.6z"/>
	</g>
	<g>
		<path class="st0" d="M298.6,164.2c0,0.9,0.1,1.6,0.2,2.2c0.1,0.6,0.5,1.1,1.1,1.5c0.6,0.4,1.4,0.8,2.5,1.1
			c1.1,0.3,2.6,0.6,4.4,0.9c0.9,0.2,1.3,0.9,1.3,2.2c0,0.3,0,0.7-0.1,1.2c0,0.5-0.1,1-0.2,1.3c-2.8-0.2-5.8-0.3-9-0.5
			c-3.2-0.1-6-0.2-8.5-0.2c-2.5,0-5.4,0.1-8.6,0.2c-3.2,0.1-6.1,0.3-8.9,0.5c-0.2-0.4-0.3-0.8-0.3-1.3c0-0.5,0-0.9,0-1.2
			c0-1.4,0.4-2.1,1.3-2.2c1.8-0.3,3.3-0.5,4.4-0.9c1.1-0.3,1.9-0.7,2.4-1.1c0.5-0.4,0.9-0.9,1.1-1.5c0.2-0.6,0.3-1.3,0.3-2.2V98.2
			c0-0.9-0.1-1.6-0.3-2.2c-0.2-0.6-0.5-1.1-1.1-1.5c-0.5-0.4-1.3-0.8-2.4-1.1c-1.1-0.3-2.6-0.6-4.4-0.9c-0.9-0.3-1.3-1-1.3-2.2
			c0-0.3,0-0.7,0-1.2c0-0.5,0.1-1,0.3-1.4c2.8,0.2,5.8,0.3,8.9,0.5c3.2,0.1,6,0.2,8.6,0.2c2.5,0,5.3-0.1,8.5-0.2
			c3.2-0.1,6.2-0.3,9-0.5c0.1,0.4,0.2,0.9,0.2,1.4c0,0.5,0.1,0.9,0.1,1.2c0,1.2-0.4,2-1.3,2.2c-1.8,0.3-3.3,0.5-4.4,0.9
			c-1.1,0.3-1.9,0.7-2.5,1.1c-0.6,0.4-0.9,0.9-1.1,1.5c-0.1,0.6-0.2,1.3-0.2,2.2V164.2z"/>
		<path class="st0" d="M309.1,176.3l-1.3-0.1c-2.8-0.2-5.8-0.3-9-0.5c-3.2-0.1-6-0.2-8.4-0.2c-2.5,0-5.4,0.1-8.5,0.2
			c-3.1,0.1-6.1,0.3-8.9,0.5l-1.1,0.1l-0.5-0.9c-0.3-0.6-0.4-1.3-0.4-2v-1.2c0-3.2,1.9-3.8,2.8-3.8c1.7-0.2,3.1-0.5,4.1-0.8
			c1.1-0.3,1.6-0.6,1.8-0.8c0.3-0.2,0.5-0.5,0.5-0.8c0.1-0.3,0.2-0.8,0.2-1.7V98.2c0-0.7-0.1-1.3-0.2-1.7c-0.1-0.3-0.3-0.5-0.5-0.8
			c-0.2-0.2-0.7-0.5-1.8-0.8c-1-0.3-2.4-0.6-4.2-0.8l-0.2-0.1c-0.7-0.2-2.5-1-2.5-3.8v-1.2c0-0.7,0.1-1.4,0.4-2.1l0.4-1.1l1.2,0.1
			c2.8,0.2,5.8,0.3,8.9,0.5c3.1,0.1,6,0.2,8.5,0.2c2.4,0,5.3-0.1,8.4-0.2c3.2-0.1,6.2-0.3,9-0.5l1.4-0.1l0.3,1.4
			c0.1,0.5,0.2,1,0.2,1.6c0,0.6,0.1,1,0.1,1.3c0,2.7-1.7,3.6-2.5,3.8l-0.2,0.1c-1.8,0.3-3.2,0.5-4.2,0.8c-1.1,0.3-1.7,0.6-2,0.8
			c-0.4,0.3-0.5,0.5-0.5,0.6c-0.1,0.4-0.2,1.1-0.2,1.8v65.9c0,0.8,0.1,1.4,0.2,1.8c0,0.1,0.1,0.3,0.5,0.6c0.3,0.2,0.8,0.5,2,0.8
			c1,0.3,2.4,0.6,4.2,0.8c0.9,0.2,2.7,0.9,2.7,3.8c0,0.3,0,0.7-0.1,1.3c-0.1,0.6-0.1,1.1-0.2,1.6L309.1,176.3z M274.3,171.4
			c0,0.1-0.1,0.3-0.1,0.7v0.8c2.4-0.1,4.9-0.3,7.5-0.4c3.2-0.1,6.1-0.2,8.6-0.2c2.5,0,5.3,0.1,8.6,0.2c2.7,0.1,5.2,0.2,7.6,0.4
			c0-0.3,0-0.6,0-0.8c0-0.4,0-0.6-0.1-0.7c-1.9-0.3-3.3-0.6-4.5-0.9c-1.3-0.4-2.3-0.8-3-1.4c-0.9-0.7-1.4-1.5-1.6-2.4
			c-0.2-0.7-0.2-1.5-0.2-2.5V98.2c0-1,0.1-1.8,0.2-2.5c0.2-0.9,0.8-1.8,1.6-2.4c0.7-0.6,1.7-1,3-1.4c1.1-0.3,2.6-0.6,4.4-0.9
			c0.1-0.1,0.1-0.3,0.1-0.7c0-0.2,0-0.5-0.1-0.9c-2.4,0.1-4.9,0.3-7.6,0.4c-3.2,0.1-6.1,0.2-8.6,0.2c-2.6,0-5.5-0.1-8.6-0.2
			c-2.6-0.1-5.1-0.2-7.5-0.4v0.9c0,0.4,0.1,0.6,0.1,0.7c1.8,0.3,3.3,0.6,4.4,0.9c1.3,0.4,2.3,0.8,3,1.4c0.8,0.6,1.3,1.4,1.6,2.3
			c0.2,0.7,0.3,1.6,0.3,2.6v65.9c0,1.1-0.1,1.9-0.3,2.6c-0.3,0.9-0.8,1.6-1.6,2.3c-0.7,0.6-1.7,1.1-3,1.4
			C277.6,170.9,276.1,171.1,274.3,171.4z"/>
	</g>
	<g>
		<path class="st0" d="M375,109.7c-0.8,0.3-1.6,0.4-2.5,0.4c-1.2,0-2.1-0.2-2.6-0.7c-0.5-0.5-0.9-1-1.1-1.5c-2-5-4.6-8.6-7.8-10.8
			c-3.2-2.2-7.5-3.3-12.8-3.3c-4.2,0-7.8,1-10.7,3.1c-2.9,2.1-4.4,5.2-4.4,9.4c0,3.2,1.1,5.9,3.4,7.8c2.2,2,5,3.7,8.4,5.2
			c3.4,1.5,7,2.9,10.9,4.3c3.9,1.4,7.5,3.2,10.9,5.3c3.4,2.1,6.2,4.8,8.4,8c2.2,3.2,3.4,7.4,3.4,12.5c0,3.3-0.6,6.6-1.7,9.7
			c-1.1,3.2-2.9,5.9-5.4,8.4c-2.5,2.4-5.6,4.3-9.3,5.8c-3.8,1.4-8.3,2.2-13.6,2.2c-5.8,0-11-0.6-15.5-1.9c-4.6-1.2-8.3-2.6-11.3-4.1
			c-0.3-3.8-0.7-7.5-1.3-11.1c-0.6-3.6-1.2-7.2-1.9-10.6c0.9-0.4,1.9-0.5,3-0.5c1.1,0,1.8,0.2,2.4,0.6c0.5,0.4,1,1.1,1.3,2
			c1.1,3.3,2.4,6.2,3.8,8.6c1.4,2.4,3,4.4,4.9,5.9c1.8,1.5,4,2.7,6.4,3.4c2.4,0.7,5.2,1.1,8.4,1.1c2.7,0,5-0.4,7-1.1
			c1.9-0.7,3.5-1.7,4.7-3c1.2-1.2,2.1-2.7,2.8-4.4c0.6-1.7,0.9-3.4,0.9-5.1c0-3.8-1.1-6.7-3.2-8.9c-2.2-2.2-4.8-4-8-5.4
			c-3.2-1.5-6.7-2.8-10.4-4.1c-3.7-1.3-7.2-2.9-10.4-4.9c-3.2-2-5.9-4.5-8-7.6c-2.2-3.1-3.2-7.3-3.2-12.6c0-3.5,0.6-6.8,1.9-9.8
			c1.3-3,3.1-5.7,5.6-7.9c2.5-2.2,5.4-4,8.9-5.3c3.5-1.3,7.4-2,11.9-2c3.7,0,7.4,0.4,11.1,1.2c3.7,0.8,8,2.1,12.7,3.9
			c0.2,2.6,0.5,5.6,0.9,8.9C374,104.1,374.5,107.1,375,109.7z"/>
		<path class="st0" d="M348.4,177.1c-5.9,0-11.3-0.6-16-1.9c-4.6-1.3-8.5-2.7-11.6-4.2l-0.8-0.4l-0.1-0.9c-0.3-3.7-0.7-7.4-1.2-11
			c-0.6-3.6-1.2-7.2-1.9-10.5l-0.3-1.3l1.2-0.5c1.1-0.4,2.3-0.6,3.6-0.6c1.4,0,2.5,0.3,3.3,0.9c0.8,0.6,1.4,1.5,1.9,2.8
			c1.1,3.2,2.3,6,3.7,8.4c1.3,2.2,2.8,4.1,4.5,5.5c1.7,1.4,3.6,2.4,5.8,3c2.3,0.7,4.9,1,7.9,1c2.5,0,4.7-0.3,6.4-1
			c1.7-0.7,3.1-1.5,4.2-2.6c1.1-1.1,1.9-2.3,2.4-3.8c0.5-1.5,0.8-3,0.8-4.6c0-3.4-0.9-5.9-2.8-7.8c-2-2-4.5-3.7-7.6-5.1
			c-3.1-1.4-6.6-2.8-10.3-4c-3.8-1.3-7.4-3-10.7-5c-3.4-2.1-6.2-4.8-8.5-8.1c-2.3-3.4-3.5-7.9-3.5-13.5c0-3.7,0.7-7.2,2-10.4
			c1.4-3.2,3.4-6.1,6-8.5c2.6-2.4,5.8-4.3,9.4-5.7c3.6-1.4,7.8-2.1,12.5-2.1c3.8,0,7.6,0.4,11.5,1.2c3.8,0.8,8.2,2.2,13,4l1,0.4
			l0.1,1c0.2,2.6,0.5,5.5,0.8,8.8c0.4,3.2,0.8,6.2,1.4,8.8l0.3,1.4l-1.4,0.4c-1,0.3-2,0.5-3,0.5c-1.7,0-2.9-0.4-3.7-1.1
			c-0.7-0.7-1.2-1.4-1.5-2.2c-1.9-4.6-4.3-8-7.2-10c-2.9-2-6.9-3-11.9-3c-3.9,0-7.2,0.9-9.8,2.8c-2.5,1.8-3.7,4.4-3.7,8.1
			c0,2.8,0.9,5,2.8,6.6c2.1,1.9,4.8,3.5,8,4.9c3.3,1.5,7,2.9,10.8,4.3c4,1.4,7.8,3.3,11.2,5.4c3.5,2.2,6.5,5.1,8.9,8.5
			c2.4,3.5,3.6,8,3.6,13.4c0,3.5-0.6,7-1.8,10.3c-1.2,3.4-3.2,6.4-5.8,9c-2.6,2.6-5.9,4.6-9.9,6.1
			C358.6,176.3,353.8,177.1,348.4,177.1z M323.1,168.5c2.8,1.3,6.2,2.5,10.2,3.6c4.4,1.2,9.5,1.8,15.1,1.8c5,0,9.4-0.7,13-2.1
			c3.6-1.4,6.5-3.2,8.8-5.4c2.3-2.2,4-4.8,5-7.8c1.1-3,1.6-6.1,1.6-9.2c0-4.7-1-8.6-3.1-11.6c-2.1-3-4.8-5.6-8-7.6
			c-3.3-2-6.8-3.8-10.6-5.1c-3.9-1.4-7.6-2.9-11-4.4c-3.5-1.5-6.5-3.4-8.8-5.5c-2.6-2.3-3.9-5.3-3.9-9c0-4.7,1.7-8.4,5.1-10.7
			c3.2-2.2,7.1-3.4,11.7-3.4c5.7,0,10.3,1.2,13.7,3.6c3.5,2.4,6.3,6.2,8.4,11.5c0.1,0.4,0.3,0.6,0.6,0.9c0,0,0.4,0.3,1.5,0.3
			c0.2,0,0.4,0,0.6,0c-0.4-2.3-0.8-4.8-1.1-7.4c-0.3-2.9-0.6-5.6-0.8-7.9c-4.3-1.6-8.1-2.8-11.5-3.5c-3.6-0.8-7.2-1.2-10.8-1.2
			c-4.3,0-8.1,0.6-11.3,1.9c-3.3,1.2-6.1,2.9-8.4,5c-2.3,2.1-4,4.5-5.2,7.3c-1.2,2.8-1.8,5.9-1.8,9.2c0,4.9,1,8.8,2.9,11.7
			c2,2.9,4.6,5.3,7.6,7.2c3.1,1.9,6.5,3.5,10.1,4.7c3.8,1.3,7.3,2.7,10.5,4.1c3.4,1.5,6.2,3.5,8.5,5.7c2.5,2.5,3.7,5.8,3.7,10
			c0,1.9-0.3,3.9-1,5.7c-0.7,1.9-1.7,3.5-3.1,4.9c-1.4,1.4-3.2,2.5-5.3,3.3c-2.1,0.8-4.6,1.2-7.6,1.2c-3.3,0-6.3-0.4-8.8-1.1
			c-2.6-0.8-5-2-7-3.7c-2-1.6-3.7-3.8-5.2-6.3c-1.5-2.5-2.8-5.5-3.9-8.9c-0.3-0.9-0.6-1.2-0.8-1.3c-0.1-0.1-0.4-0.3-1.4-0.3
			c-0.4,0-0.8,0-1.2,0.1c0.6,3,1.1,6,1.6,9.2C322.4,161.6,322.8,165,323.1,168.5z"/>
	</g>
	<g>
		<path class="st0" d="M434.6,94.9v69.2c0,0.9,0.1,1.6,0.2,2.2c0.1,0.6,0.5,1.1,1,1.5c0.5,0.4,1.3,0.8,2.2,1.1
			c1,0.3,2.3,0.6,4.1,0.9c1.3,0.3,2,1,2,2.2c0,0.3,0,0.7-0.1,1.2c0,0.5-0.1,1-0.2,1.3c-2.8-0.2-5.8-0.3-9-0.5
			c-3.2-0.1-6-0.2-8.5-0.2c-2.5,0-5.4,0.1-8.5,0.2c-3.1,0.1-6.1,0.3-8.9,0.5c-0.2-0.4-0.3-0.8-0.3-1.3c0-0.5-0.1-0.9-0.1-1.2
			c0-0.6,0.1-1.1,0.3-1.5c0.2-0.4,0.8-0.7,1.8-0.9c3.2-0.4,5.3-1,6.1-1.8c0.8-0.7,1.3-2,1.3-3.8V94.9h-11.6c-2.5,0-4.5,0.2-6.3,0.7
			c-1.7,0.5-3.2,1.2-4.5,2.2c-1.3,1-2.4,2.3-3.4,3.9c-1,1.6-2,3.6-3.1,5.9c-0.4,0.8-1,1.2-2,1.2c-0.5,0-1.1-0.1-1.8-0.3
			c-0.7-0.2-1.2-0.4-1.6-0.6c0.6-2.1,1.1-4,1.6-5.6c0.4-1.6,0.8-3.2,1.1-4.8c0.3-2,0.6-3.8,0.8-5.4c0.2-1.6,0.4-2.7,0.7-3.4
			c0.3-0.8,1.1-1.2,2.1-1.2c1,0,2.9,0.1,5.7,0.4c2.9,0.3,6.3,0.4,10.3,0.4h40.5c3.9,0,7.3-0.1,10.2-0.4c2.8-0.3,4.8-0.4,5.9-0.4
			c1,0,1.7,0.4,2.1,1.2c0.3,0.7,0.5,1.8,0.6,3.4c0.1,1.6,0.4,3.4,0.9,5.4c0.3,1.6,0.6,3.2,1,4.8c0.4,1.6,0.9,3.5,1.6,5.6
			c-0.4,0.2-1,0.4-1.6,0.6c-0.7,0.2-1.3,0.3-1.8,0.3c-1,0-1.7-0.4-2.1-1.2c-1.1-2.3-2.1-4.2-3.1-5.9c-1-1.6-2.2-2.9-3.4-3.9
			c-1.3-1-2.8-1.8-4.5-2.2c-1.7-0.5-3.8-0.7-6.1-0.7H434.6z"/>
		<path class="st0" d="M445.1,176.3l-1.3-0.1c-2.8-0.2-5.8-0.3-9-0.5c-3.2-0.1-6-0.2-8.4-0.2c-2.5,0-5.3,0.1-8.4,0.2
			c-3.1,0.1-6.1,0.3-8.9,0.5l-1.1,0.1l-0.5-1c-0.3-0.5-0.4-1.2-0.5-1.9c-0.1-0.6-0.1-1-0.1-1.3c0-0.9,0.2-1.7,0.5-2.3
			c0.6-1.1,1.9-1.5,2.9-1.7c4.1-0.6,5.1-1.2,5.3-1.4c0.6-0.5,0.7-1.7,0.7-2.6V96.6h-10c-2.3,0-4.3,0.2-5.8,0.7
			c-1.5,0.4-2.8,1.1-3.9,1.9c-1.1,0.9-2.2,2.1-3.1,3.5c-1,1.6-2,3.5-3,5.7c-0.9,1.9-2.9,2.6-5.8,1.7c-0.8-0.2-1.4-0.5-1.8-0.7
			l-1.2-0.6l0.4-1.3c0.6-2.1,1.1-3.9,1.6-5.6c0.4-1.6,0.8-3.1,1-4.6c0.3-2,0.6-3.8,0.8-5.3c0.2-1.7,0.4-3,0.8-3.8
			c0.4-0.9,1.3-2.2,3.6-2.2c1,0,3,0.1,5.9,0.4c2.8,0.3,6.2,0.4,10.2,0.4h40.5c3.9,0,7.3-0.1,10.1-0.4c2.9-0.3,4.9-0.4,6-0.4
			c1.5,0,2.8,0.7,3.5,2l0.1,0.2c0.3,0.9,0.5,2.1,0.7,3.9c0.1,1.5,0.4,3.3,0.8,5.2c0.3,1.6,0.6,3.2,1,4.8c0.4,1.6,0.9,3.4,1.6,5.5
			l0.5,1.4l-1.4,0.6c-0.5,0.2-1,0.4-1.7,0.6c-2.6,0.9-4.7,0.3-5.8-1.6c-1.1-2.3-2.1-4.2-3.1-5.8c-0.9-1.5-1.9-2.6-3.1-3.5
			c-1.1-0.9-2.4-1.5-3.9-1.9c-1.6-0.4-3.5-0.7-5.7-0.7h-10v67.6c0,0.8,0.1,1.4,0.2,1.8c0,0.1,0.1,0.4,0.4,0.6
			c0.3,0.2,0.7,0.5,1.7,0.8c0.9,0.3,2.2,0.5,3.8,0.8c2.2,0.4,3.3,1.8,3.3,3.8c0,0.3,0,0.7-0.1,1.3c-0.1,0.6-0.1,1.1-0.2,1.6
			L445.1,176.3z M410.2,171.5c0,0.1-0.1,0.3-0.1,0.6c0,0.2,0,0.5,0,0.8c2.4-0.1,4.9-0.3,7.6-0.4c3.1-0.1,6-0.2,8.6-0.2
			c2.5,0,5.3,0.1,8.6,0.2c2.7,0.1,5.2,0.2,7.6,0.4c0-0.3,0-0.6,0-0.8c0-0.3,0-0.5-0.7-0.7c-1.8-0.3-3.2-0.6-4.3-0.9
			c-1.2-0.4-2.1-0.8-2.8-1.4c-0.8-0.7-1.3-1.5-1.5-2.4c-0.2-0.7-0.2-1.5-0.2-2.5V93.3h13.2c2.5,0,4.7,0.3,6.6,0.8
			c1.9,0.5,3.6,1.4,5,2.5c1.4,1.1,2.7,2.6,3.8,4.4c1,1.7,2.1,3.7,3.2,6c0.1,0.1,0.2,0.2,0.6,0.2c0.4,0,0.8-0.1,1.3-0.2
			c0,0,0.1,0,0.1,0c-0.5-1.5-0.9-3-1.2-4.2c-0.4-1.6-0.7-3.3-1-4.9c-0.4-2-0.7-3.9-0.9-5.5c-0.1-1.6-0.3-2.4-0.5-2.9
			c-0.1-0.2-0.3-0.3-0.6-0.3c-0.7,0-2.3,0.1-5.7,0.4c-2.9,0.3-6.4,0.4-10.4,0.4H406c-4.1,0-7.6-0.1-10.5-0.4
			c-3.5-0.3-4.9-0.4-5.6-0.4c-0.5,0-0.6,0.1-0.6,0.2c-0.1,0.3-0.3,1.2-0.5,2.9c-0.2,1.6-0.4,3.4-0.8,5.5c-0.3,1.6-0.6,3.3-1.1,4.9
			c-0.3,1.3-0.7,2.7-1.2,4.2c0,0,0.1,0,0.1,0c1.8,0.6,1.8,0.3,1.9,0c1.1-2.4,2.2-4.4,3.2-6.1c1.1-1.8,2.4-3.2,3.8-4.4
			c1.4-1.1,3.1-2,5-2.5c1.9-0.5,4.1-0.8,6.7-0.8h13.2v70.8c0,2.2-0.6,3.9-1.8,5c-1.1,1-3.3,1.7-7,2.2
			C410.5,171.4,410.3,171.4,410.2,171.5z M410.3,171.3C410.3,171.3,410.3,171.3,410.3,171.3C410.3,171.3,410.3,171.3,410.3,171.3z"
			/>
	</g>
	<g>
		<path class="st0" d="M501.5,164.2c0,0.9,0.1,1.6,0.2,2.2c0.1,0.6,0.5,1.1,1.1,1.5c0.6,0.4,1.4,0.8,2.5,1.1
			c1.1,0.3,2.6,0.6,4.4,0.9c0.9,0.2,1.3,0.9,1.3,2.2c0,0.3,0,0.7-0.1,1.2c0,0.5-0.1,1-0.2,1.3c-2.8-0.2-5.8-0.3-9-0.5
			c-3.2-0.1-6-0.2-8.5-0.2c-2.5,0-5.4,0.1-8.6,0.2c-3.2,0.1-6.1,0.3-8.9,0.5c-0.2-0.4-0.3-0.8-0.3-1.3c0-0.5,0-0.9,0-1.2
			c0-1.4,0.4-2.1,1.3-2.2c1.8-0.3,3.3-0.5,4.4-0.9c1.1-0.3,1.9-0.7,2.4-1.1c0.5-0.4,0.9-0.9,1.1-1.5c0.2-0.6,0.3-1.3,0.3-2.2V98.2
			c0-0.9-0.1-1.6-0.3-2.2c-0.2-0.6-0.5-1.1-1.1-1.5c-0.5-0.4-1.3-0.8-2.4-1.1c-1.1-0.3-2.6-0.6-4.4-0.9c-0.9-0.3-1.3-1-1.3-2.2
			c0-0.3,0-0.7,0-1.2c0-0.5,0.1-1,0.3-1.4c2.8,0.2,5.8,0.3,8.9,0.5c3.2,0.1,6,0.2,8.6,0.2c2.5,0,5.3-0.1,8.5-0.2
			c3.2-0.1,6.2-0.3,9-0.5c0.1,0.4,0.2,0.9,0.2,1.4c0,0.5,0.1,0.9,0.1,1.2c0,1.2-0.4,2-1.3,2.2c-1.8,0.3-3.3,0.5-4.4,0.9
			c-1.1,0.3-1.9,0.7-2.5,1.1c-0.6,0.4-0.9,0.9-1.1,1.5c-0.1,0.6-0.2,1.3-0.2,2.2V164.2z"/>
		<path class="st0" d="M511.9,176.3l-1.3-0.1c-2.8-0.2-5.8-0.3-9-0.5c-3.2-0.1-6-0.2-8.4-0.2c-2.5,0-5.4,0.1-8.5,0.2
			c-3.1,0.1-6.1,0.3-8.9,0.5l-1.1,0.1l-0.5-0.9c-0.3-0.6-0.4-1.3-0.4-2v-1.2c0-3.2,1.9-3.8,2.8-3.8c1.7-0.2,3.1-0.5,4.1-0.8
			c1.1-0.3,1.6-0.6,1.8-0.8c0.3-0.2,0.5-0.5,0.5-0.8c0.1-0.3,0.2-0.8,0.2-1.7V98.2c0-0.7-0.1-1.3-0.2-1.7c-0.1-0.3-0.3-0.5-0.5-0.8
			c-0.2-0.2-0.7-0.5-1.8-0.8c-1-0.3-2.4-0.6-4.2-0.8l-0.2-0.1c-0.7-0.2-2.5-1-2.5-3.8v-1.2c0-0.7,0.1-1.4,0.4-2.1l0.4-1.1l1.2,0.1
			c2.8,0.2,5.8,0.3,8.9,0.5c3.1,0.1,6,0.2,8.5,0.2c2.4,0,5.3-0.1,8.4-0.2c3.2-0.1,6.2-0.3,9-0.5L512,86l0.3,1.4
			c0.1,0.5,0.2,1,0.2,1.6c0.1,0.6,0.1,1,0.1,1.3c0,2.7-1.7,3.6-2.5,3.8l-0.2,0.1c-1.8,0.3-3.2,0.5-4.2,0.8c-1.1,0.3-1.7,0.6-2,0.8
			c-0.4,0.3-0.5,0.5-0.5,0.6c-0.1,0.4-0.2,1.1-0.2,1.8v65.9c0,0.8,0.1,1.4,0.2,1.8c0,0.1,0.1,0.3,0.5,0.6c0.3,0.2,0.8,0.5,2,0.8
			c1,0.3,2.4,0.6,4.2,0.8c0.9,0.2,2.7,0.9,2.7,3.8c0,0.3,0,0.7-0.1,1.3c-0.1,0.6-0.1,1.1-0.2,1.6L511.9,176.3z M477.1,171.4
			c0,0.1-0.1,0.3-0.1,0.7v0.8c2.4-0.1,4.9-0.3,7.5-0.4c3.2-0.1,6.1-0.2,8.6-0.2c2.5,0,5.3,0.1,8.6,0.2c2.7,0.1,5.2,0.2,7.6,0.4
			c0-0.3,0-0.6,0-0.8c0-0.4,0-0.6-0.1-0.7c-1.9-0.3-3.3-0.6-4.5-0.9c-1.3-0.4-2.3-0.8-3.1-1.4c-0.9-0.7-1.4-1.5-1.6-2.4
			c-0.2-0.7-0.2-1.5-0.2-2.5V98.2c0-1,0.1-1.8,0.2-2.5c0.2-0.9,0.8-1.8,1.6-2.4c0.7-0.6,1.7-1,3-1.4c1.1-0.3,2.6-0.6,4.4-0.9
			c0.1-0.1,0.1-0.3,0.1-0.7c0-0.2,0-0.5-0.1-0.9c-2.4,0.1-4.9,0.3-7.6,0.4c-3.2,0.1-6.1,0.2-8.6,0.2c-2.6,0-5.5-0.1-8.6-0.2
			c-2.6-0.1-5.1-0.2-7.5-0.4v0.9c0,0.4,0.1,0.6,0.1,0.7c1.8,0.3,3.3,0.6,4.4,0.9c1.3,0.4,2.3,0.8,3,1.4c0.8,0.6,1.3,1.4,1.6,2.3
			c0.2,0.7,0.3,1.6,0.3,2.6v65.9c0,1.1-0.1,1.9-0.3,2.6c-0.3,0.9-0.8,1.6-1.6,2.3c-0.7,0.6-1.7,1.1-3,1.4
			C480.4,170.9,479,171.1,477.1,171.4z"/>
	</g>
	<g>
		<path class="st0" d="M570.8,145h-27.6l-6.8,18.3c-0.3,0.4-0.4,0.9-0.5,1.4c-0.1,0.5-0.1,0.9-0.1,1.2c0,1,0.5,1.8,1.4,2.4
			c0.9,0.6,2.8,1.1,5.6,1.6c1.2,0.2,1.8,1,1.8,2.5c0,0.6-0.1,1.4-0.3,2.2c-2.4-0.2-4.9-0.3-7.5-0.5c-2.6-0.1-5.2-0.2-7.8-0.2
			c-1.8,0-3.6,0-5.5,0.1c-1.9,0.1-4.1,0.3-6.5,0.5c-0.2-0.4-0.3-0.7-0.3-1.2c0-0.4,0-0.8,0-1.1c0-1.7,0.6-2.5,1.7-2.6
			c2.7-0.5,4.7-1.1,5.9-1.7c1.2-0.6,2.1-1.7,2.8-3.2L558.9,89c0.7-1.5,1.8-2.2,3.2-2.2c0.4,0,0.9,0,1.3,0.1c0.4,0,0.9,0.1,1.4,0.2
			l31.7,78.2c0.5,1.3,1.5,2.3,3,3c1.5,0.7,3.1,1.1,4.9,1.4c1.3,0.3,2,1.1,2,2.6c0,0.7-0.1,1.5-0.3,2.4c-2.8-0.2-5.6-0.3-8.3-0.5
			c-2.7-0.1-5.3-0.2-7.6-0.2c-1.2,0-2.7,0-4.5,0.1c-1.8,0-3.6,0.1-5.4,0.2c-1.8,0.1-3.7,0.2-5.5,0.2c-1.8,0-3.3,0.1-4.5,0.2
			c-0.2-0.4-0.3-0.7-0.3-1.2c0-0.4,0-0.8,0-1.1c0-0.8,0.2-1.4,0.5-1.8c0.3-0.4,0.6-0.6,1-0.7c2.3-0.4,4-0.9,5.1-1.5
			c1.1-0.6,1.6-1.4,1.6-2.6c0-0.5-0.1-1.2-0.4-2L570.8,145z M568.3,138.4l-11.2-29.6l-11.5,29.6H568.3z M570.3,60.1
			c2.8,1,4.9,2.3,6.3,4c1.4,1.7,2,3.2,2,4.7c0,1.1-0.3,2-0.9,2.8c-0.6,0.8-1.5,1.4-2.7,1.7c-1.9,0.5-3.7,1-5.3,1.5
			c-1.6,0.5-3.1,1-4.7,1.5c-1.5,0.5-3.2,1.1-4.9,1.8c-1.7,0.7-3.6,1.5-5.7,2.4c-0.8-0.6-1.3-1.2-1.6-1.7c-0.3-0.5-0.4-1-0.4-1.4
			c0-0.7,0.2-1.3,0.7-1.7L570.3,60.1z"/>
		<path class="st0" d="M516.1,176.3l-0.5-1c-0.3-0.6-0.4-1.2-0.4-1.9v-1.1c0-3.5,2.1-4.1,3.1-4.2c3.1-0.6,4.6-1.2,5.3-1.5
			c0.9-0.4,1.6-1.2,2.1-2.4l31.7-75.8c1.3-2.7,3.2-3.2,4.6-3.2c0.5,0,1,0,1.5,0.1c0.5,0.1,1,0.1,1.6,0.2l0.9,0.1l32.1,79
			c0.4,0.9,1.1,1.6,2.2,2.1c1.4,0.6,2.9,1,4.5,1.3c2.2,0.4,3.3,2,3.3,4.2c0,0.8-0.1,1.7-0.3,2.7l-0.3,1.4l-1.4-0.1
			c-2.8-0.2-5.6-0.3-8.3-0.5c-2.7-0.1-5.2-0.2-7.6-0.2c-1.2,0-2.7,0-4.4,0.1c-1.7,0-3.5,0.1-5.4,0.2c-1.9,0.1-3.7,0.2-5.5,0.2
			c-1.8,0-3.3,0.1-4.5,0.2l-1.1,0.1l-0.5-1c-0.3-0.6-0.4-1.2-0.4-1.9v-1.1c0-1.2,0.3-2.1,0.8-2.8c0.5-0.7,1.2-1.1,1.9-1.3
			c2.2-0.4,3.8-0.9,4.7-1.4c0.6-0.3,0.8-0.7,0.8-1.1c0-0.2-0.1-0.7-0.3-1.5l-6.6-17.7h-25.4l-6.6,17.5c-0.2,0.3-0.3,0.6-0.3,0.9
			c-0.1,0.4-0.1,0.7-0.1,0.9c0,0.3,0.1,0.6,0.7,1c0.4,0.3,1.6,0.8,4.9,1.3c1,0.1,3.2,0.8,3.2,4.1c0,0.7-0.1,1.6-0.3,2.6l-0.3,1.4
			l-1.4-0.1c-2.4-0.2-4.8-0.3-7.5-0.5c-4.4-0.2-8.6-0.3-13.1-0.1c-1.9,0.1-4,0.3-6.3,0.5L516.1,176.3z M571.9,171.4
			c0,0,0,0.1-0.1,0.1c0,0-0.1,0.2-0.1,0.8v0.5c0.9,0,2-0.1,3.2-0.1c1.8,0,3.6-0.1,5.4-0.2c1.9-0.1,3.7-0.2,5.4-0.2
			c1.8,0,3.3-0.1,4.5-0.1c2.4,0,5,0.1,7.7,0.2c2.2,0.1,4.5,0.2,6.8,0.4c0-0.2,0-0.5,0-0.7c0-0.9-0.3-1-0.7-1.1
			c-1.8-0.3-3.6-0.8-5.2-1.5c-1.9-0.8-3.2-2.1-3.9-3.8l-31.4-77.3c-0.2,0-0.3,0-0.5-0.1c-0.4,0-0.8-0.1-1.1-0.1
			c-0.5,0-1.2,0.2-1.7,1.3l-31.7,75.8c-0.9,1.9-2.1,3.2-3.6,4c-1.3,0.7-3.4,1.3-6.3,1.9l-0.2,0c0,0-0.2,0.2-0.2,1v0.5
			c1.8-0.2,3.5-0.3,5-0.4c4.6-0.2,8.9-0.2,13.4,0.1c2.1,0.1,4.1,0.2,6.1,0.4c0-0.2,0-0.4,0-0.5c0-0.8-0.2-0.9-0.5-0.9
			c-3.1-0.5-5.1-1.1-6.3-1.8c-1.7-1.2-2.1-2.7-2.1-3.7c0-0.4,0-0.8,0.2-1.4c0.1-0.7,0.3-1.3,0.7-1.9l7.2-19.2H572l7.4,19.9
			c0.3,1,0.5,1.8,0.5,2.5c0,1.7-0.9,3.2-2.5,4C576.1,170.4,574.3,170.9,571.9,171.4z M570.7,140h-27.3l13.8-35.7L570.7,140z
			 M548.1,136.8h18l-8.9-23.5L548.1,136.8z M554.3,82.3l-0.7-0.6c-1-0.8-1.7-1.5-2-2.3c-0.4-0.8-0.6-1.5-0.6-2.2
			c0-1.1,0.4-2.1,1.1-2.9l17.9-16.2l0.9,0.3c3.1,1.1,5.4,2.6,7,4.5c1.6,2,2.4,3.9,2.4,5.8c0,1.4-0.4,2.6-1.2,3.7
			c-0.8,1.1-2,1.9-3.6,2.3c-1.9,0.5-3.7,1-5.2,1.5c-1.6,0.5-3.1,1-4.6,1.5c-1.5,0.5-3.1,1.1-4.8,1.8c-1.7,0.7-3.6,1.5-5.7,2.4
			L554.3,82.3z M570.7,61.9l-16.4,14.9c0,0-0.1,0.1-0.1,0.5c0,0.1,0,0.3,0.2,0.7c0,0.1,0.2,0.3,0.4,0.6c1.7-0.7,3.4-1.4,4.8-2
			c1.7-0.7,3.4-1.3,5-1.9c1.6-0.5,3.1-1,4.7-1.5c1.6-0.5,3.4-1,5.3-1.5c0.8-0.2,1.5-0.6,1.8-1.1c0.4-0.5,0.6-1.1,0.6-1.8
			c0-1.1-0.6-2.4-1.7-3.7C574.3,63.8,572.7,62.7,570.7,61.9z"/>
	</g>
	<g>
		<path class="st0" d="M681.1,145.2V98.5c0-1.9-0.7-3.3-2-4.1c-1.3-0.8-3.6-1.4-7-1.8c-1.1-0.3-1.7-1.1-1.7-2.5c0-0.3,0-0.6,0-1.1
			c0-0.4,0.1-0.9,0.3-1.3c2.2,0.3,4.3,0.4,6.5,0.5c2.1,0.1,4.6,0.1,7.4,0.1c2.8,0,5.2,0,7.2-0.1c2-0.1,4-0.3,6.1-0.5
			c0.1,0.4,0.2,0.9,0.2,1.3c0,0.4,0.1,0.8,0.1,1.1c0,1.5-0.5,2.3-1.6,2.5c-2.9,0.4-4.9,1.1-5.9,1.8c-1.1,0.8-1.6,2.1-1.6,3.8v77
			c-0.4,0.1-0.9,0.2-1.8,0.2c-0.8,0-1.4,0.1-1.6,0.1c-0.6,0-1.3-0.2-2-0.5c-0.7-0.3-1.4-0.9-2.2-1.9l-51.9-65.8v56.9
			c0,0.9,0.1,1.6,0.2,2.2c0.1,0.6,0.5,1.1,1.1,1.4c0.6,0.4,1.4,0.7,2.5,1.1c1.1,0.3,2.6,0.6,4.4,1c0.4,0.1,0.8,0.3,1.1,0.6
			c0.3,0.3,0.5,0.9,0.5,1.9c0,0.6-0.1,1.4-0.3,2.2c-2.2-0.2-4.3-0.3-6.2-0.5c-1.9-0.1-4.2-0.2-6.7-0.2c-2.5,0-5,0.1-7.3,0.2
			c-2.3,0.1-4.5,0.3-6.4,0.5c-0.2-0.4-0.3-0.7-0.3-1.2c0-0.4,0-0.8,0-1.1c0-0.9,0.2-1.5,0.5-1.8c0.3-0.4,0.7-0.6,1.1-0.7
			c3.2-0.5,5.3-1.2,6.3-2c1.1-0.8,1.6-2,1.6-3.7V97.6c0-1.4-0.5-2.5-1.4-3.2c-0.9-0.7-3-1.3-6.3-1.8c-1.1-0.3-1.6-1.1-1.6-2.5
			c0-0.2,0-0.4,0-0.6c0-0.2,0-0.5,0.1-0.7l0.1-1.1c1.2,0.1,2.4,0.2,3.6,0.2c1.1,0,2.3,0.1,3.4,0.2c1.9,0.1,3.9,0.2,5.9,0.2
			c2,0,3.6,0.1,4.8,0.1c2.5,0,4.2,0.1,5,0.3c0.8,0.2,1.5,0.6,2.1,1.3L681.1,145.2z"/>
		<path class="st0" d="M685.6,177.1c-0.8,0-1.7-0.2-2.6-0.6c-0.9-0.4-1.9-1.2-2.8-2.4l-49-62.2v52.2c0,0.8,0.1,1.4,0.2,1.8
			c0,0.1,0.1,0.3,0.4,0.5c0.3,0.2,0.9,0.5,2,0.8c1,0.3,2.5,0.6,4.3,1c0.8,0.2,1.4,0.5,2,1c0.6,0.6,0.9,1.6,0.9,3.1
			c0,0.7-0.1,1.6-0.3,2.6l-0.3,1.4l-1.4-0.1c-2.2-0.2-4.2-0.3-6.2-0.5c-1.9-0.1-4.1-0.2-6.6-0.2c-2.5,0-4.9,0.1-7.2,0.2
			c-2.3,0.1-4.5,0.3-6.3,0.5l-1.1,0.1l-0.5-1c-0.3-0.6-0.4-1.2-0.4-1.9v-1.1c0-1.3,0.3-2.2,0.9-2.9c0.5-0.6,1.2-1,2-1.2
			c3.8-0.6,5.2-1.3,5.7-1.7c0.4-0.3,0.9-0.9,0.9-2.4V97.6c0-1.2-0.4-1.7-0.8-2c-0.3-0.2-1.5-0.9-5.5-1.4l-0.2,0
			c-0.8-0.2-2.8-1-2.8-4.1v-0.6c0-0.3,0.1-0.7,0.2-1.1l0.3-2.4l1.5,0.1c1.2,0.1,2.4,0.2,3.5,0.2c1.2,0,2.3,0.1,3.5,0.2
			c1.9,0.1,3.8,0.2,5.8,0.2c2,0,3.5,0.1,4.8,0.1c3.6,0,4.8,0.2,5.4,0.4c1.1,0.3,2,0.9,2.8,1.7l0.1,0.1l40.8,51.6V98.5
			c0-1.8-0.7-2.4-1.2-2.7c-0.8-0.5-2.5-1.1-6.4-1.6c-2-0.5-3.1-1.9-3.1-4.1V89c0-0.6,0.1-1.3,0.4-1.9l0.5-1.1l1.2,0.1
			c2.1,0.3,4.3,0.4,6.3,0.5c2.1,0.1,4.5,0.1,7.3,0.1c2.8,0,5.2,0,7.2-0.1c2-0.1,3.9-0.3,5.9-0.5l1.5-0.2l0.3,1.5
			c0.1,0.5,0.2,1,0.2,1.5c0.1,0.5,0.1,0.9,0.1,1.2c0,3.3-2,3.9-2.9,4.1c-3.5,0.5-4.8,1.2-5.2,1.5c-0.2,0.2-0.9,0.7-0.9,2.5v78.3
			l-1.2,0.3c-0.5,0.1-1.1,0.2-2.1,0.2C686.5,177.1,685.9,177.1,685.6,177.1z M627.9,102.7l54.7,69.5c0.8,0.9,1.3,1.3,1.6,1.4
			c0.5,0.2,0.9,0.3,1.3,0.3c0.3,0,0.8,0,1.6-0.1c0.1,0,0.2,0,0.2,0V98.2c0-2.3,0.7-4,2.2-5.1c1.3-1,3.5-1.7,6.6-2.1
			c0.1,0,0.2-0.2,0.2-0.9c0-0.2,0-0.4,0-0.6c-1.5,0.2-3.1,0.3-4.6,0.3c-2,0.1-4.5,0.1-7.3,0.1c-2.8,0-5.3,0-7.4-0.1
			c-1.6-0.1-3.3-0.2-5-0.4v0.6c0,0.8,0.2,0.9,0.5,0.9c3.4,0.4,5.9,1.1,7.4,2c1.3,0.8,2.8,2.3,2.8,5.5v51.4L636.2,91
			c-0.4-0.4-0.8-0.6-1.3-0.8c-0.4-0.1-1.4-0.3-4.6-0.3c-1.2,0-2.9,0-4.8-0.1c-2,0-4-0.1-5.9-0.2c-1.2-0.1-2.3-0.2-3.4-0.2
			c-0.7,0-1.4-0.1-2.1-0.1c0,0,0,0.1,0,0.1v0.6c0,0.7,0.2,0.9,0.3,0.9c3.6,0.5,5.8,1.2,6.9,2.1c0.9,0.7,2,2.1,2,4.5v66.6
			c0,2.2-0.7,3.9-2.2,5c-1.3,1-3.5,1.7-7,2.3c0,0-0.1,0-0.2,0.1c0,0-0.1,0.1-0.1,0.8v0.5c1.5-0.1,3.2-0.2,4.9-0.3
			c2.3-0.1,4.8-0.2,7.4-0.2c2.6,0,4.9,0.1,6.8,0.2c1.5,0.1,3.1,0.2,4.7,0.3c0-0.2,0-0.4,0-0.5c0-0.5,0-0.7-0.1-0.8
			c-0.1,0-0.1-0.1-0.2-0.1c-1.9-0.4-3.4-0.7-4.5-1c-1.3-0.4-2.3-0.8-3-1.3c-0.9-0.6-1.5-1.4-1.7-2.4c-0.2-0.7-0.2-1.5-0.2-2.5V102.7
			z"/>
	</g>
</g>
<g>
	<g>
		<g>
			<path class="st0" d="M90,488.8h2.5v11h6.6l-0.3,2H90V488.8z"/>
			<path class="st0" d="M112.4,495.2c0,3.6-2.1,6.8-6.3,6.8c-4,0-6.2-3-6.2-6.7c0-3.8,2.3-6.7,6.3-6.7
				C110,488.6,112.4,491.3,112.4,495.2z M102.4,495.2c0,2.6,1.2,4.8,3.7,4.8c2.7,0,3.7-2.2,3.7-4.7c0-2.6-1.1-4.7-3.7-4.7
				C103.5,490.6,102.4,492.6,102.4,495.2z"/>
			<path class="st0" d="M119.6,488.8h5.5c3,0,4.3,1.6,4.3,3.3c0,1.5-0.8,2.5-1.7,2.8c0.9,0.3,2.1,1.2,2.1,3c0,2.3-1.8,3.9-4.5,3.9
				h-5.6V488.8z M124.7,494c1.5,0,2.2-0.7,2.2-1.7c0-1-0.8-1.6-2-1.6H122v3.3H124.7z M122,499.9h2.8c1.6,0,2.4-0.7,2.4-2
				c0-1.2-0.8-1.9-2.5-1.9H122V499.9z"/>
			<path class="st0" d="M134.5,498.5l-1.2,3.3h-2.4l4.5-13.1h3.1l4.7,13.1h-2.6l-1.2-3.3H134.5z M138.8,496.5c-1-3-1.7-4.8-2-5.9h0
				c-0.3,1.2-1,3.3-1.8,5.9H138.8z"/>
			<path class="st0" d="M147.4,496.4v5.4H145v-13.1h5.5c2.8,0,4.3,1.5,4.3,3.6c0,1.7-1,2.7-2,3.1c0.8,0.3,1.8,1,1.8,3.3v0.6
				c0,0.9,0,1.9,0.2,2.5h-2.3c-0.2-0.6-0.3-1.6-0.3-2.9v-0.2c0-1.6-0.4-2.3-2.6-2.3H147.4z M147.4,494.4h2.5c1.7,0,2.4-0.6,2.4-1.9
				c0-1.2-0.8-1.8-2.3-1.8h-2.6V494.4z"/>
			<path class="st0" d="M157.5,501.8v-13.1h3.1c1.7,3,5.1,8.7,5.7,10.1h0c-0.1-1.5-0.1-3.7-0.1-5.8v-4.3h2.2v13.1h-2.9
				c-1.5-2.7-5.2-9.1-5.9-10.5h0c0.1,1.3,0.1,3.8,0.1,6.1v4.4H157.5z"/>
			<path class="st0" d="M180.5,496h-6.3v3.8h7l-0.3,2h-9.1v-13.1h9v2h-6.6v3.2h6.3V496z"/>
			<path class="st0" d="M194.2,497.9c-0.5,2.4-2.3,4.1-5.5,4.1c-4.1,0-6-2.9-6-6.7c0-3.6,2-6.8,6.1-6.8c3.3,0,5,1.9,5.4,4.1h-2.5
				c-0.3-1.2-1.1-2.2-3-2.2c-2.5,0-3.5,2.3-3.5,4.7c0,2.3,0.9,4.8,3.6,4.8c1.9,0,2.6-1.2,2.9-2.1H194.2z"/>
			<path class="st0" d="M196.5,488.8h2.5v5.2h5.8v-5.2h2.5v13.1h-2.5V496H199v5.8h-2.5V488.8z"/>
			<path class="st0" d="M219.3,496h-6.3v3.8h7l-0.3,2h-9.1v-13.1h9v2h-6.6v3.2h6.3V496z"/>
			<path class="st0" d="M224.7,498.5l-1.2,3.3h-2.4l4.5-13.1h3.1l4.7,13.1h-2.6l-1.2-3.3H224.7z M229.1,496.5c-1-3-1.7-4.8-2-5.9h0
				c-0.3,1.2-1,3.3-1.8,5.9H229.1z"/>
			<path class="st0" d="M249.3,488.8h2.5v11h6.6l-0.3,2h-8.8V488.8z"/>
			<path class="st0" d="M263.1,498.5l-1.2,3.3h-2.4l4.5-13.1h3.1l4.7,13.1h-2.6l-1.2-3.3H263.1z M267.5,496.5c-1-3-1.7-4.8-2-5.9h0
				c-0.3,1.2-1,3.3-1.8,5.9H267.5z"/>
			<path class="st0" d="M275.3,498.1c0.3,1.4,1.3,2.1,2.9,2.1c1.7,0,2.4-0.7,2.4-1.8c0-1.1-0.6-1.7-3-2.3c-3.4-0.8-4.3-2-4.3-3.8
				c0-2.2,1.6-3.7,4.6-3.7c3.4,0,4.7,1.8,4.9,3.7h-2.5c-0.2-0.9-0.7-1.8-2.5-1.8c-1.3,0-2.1,0.6-2.1,1.6c0,1,0.6,1.4,2.8,1.9
				c3.8,0.9,4.6,2.3,4.6,4.1c0,2.3-1.7,3.9-5.1,3.9c-3.3,0-4.9-1.7-5.2-3.9H275.3z"/>
			<path class="st0" d="M301.1,497.9c-0.5,2.4-2.3,4.1-5.5,4.1c-4.1,0-6-2.9-6-6.7c0-3.6,2-6.8,6.1-6.8c3.3,0,5,1.9,5.4,4.1h-2.5
				c-0.3-1.2-1.1-2.2-3-2.2c-2.5,0-3.5,2.3-3.5,4.7c0,2.3,0.9,4.8,3.6,4.8c1.9,0,2.6-1.2,2.9-2.1H301.1z"/>
			<path class="st0" d="M315.4,495.2c0,3.6-2.1,6.8-6.3,6.8c-4,0-6.2-3-6.2-6.7c0-3.8,2.3-6.7,6.3-6.7
				C313,488.6,315.4,491.3,315.4,495.2z M305.4,495.2c0,2.6,1.2,4.8,3.7,4.8c2.7,0,3.7-2.2,3.7-4.7c0-2.6-1.1-4.7-3.7-4.7
				C306.6,490.6,305.4,492.6,305.4,495.2z"/>
			<path class="st0" d="M318,501.8v-13.1h3.1c1.7,3,5.1,8.7,5.7,10.1h0c-0.1-1.5-0.1-3.7-0.1-5.8v-4.3h2.2v13.1H326
				c-1.5-2.7-5.2-9.1-5.9-10.5h0c0.1,1.3,0.1,3.8,0.1,6.1v4.4H318z"/>
			<path class="st0" d="M332.2,488.8h5c3.8,0,6.3,2.5,6.3,6.4c0,3.8-2.4,6.7-6.4,6.7h-4.9V488.8z M334.7,499.8h2.3
				c2.7,0,3.9-2,3.9-4.7c0-2.3-1.1-4.4-3.9-4.4h-2.3V499.8z"/>
			<path class="st0" d="M354.8,496h-6.3v3.8h7l-0.3,2H346v-13.1h9v2h-6.6v3.2h6.3V496z"/>
			<path class="st0" d="M359.3,498.1c0.3,1.4,1.3,2.1,2.9,2.1c1.7,0,2.4-0.7,2.4-1.8c0-1.1-0.6-1.7-3-2.3c-3.4-0.8-4.3-2-4.3-3.8
				c0-2.2,1.6-3.7,4.6-3.7c3.4,0,4.7,1.8,4.9,3.7h-2.5c-0.2-0.9-0.7-1.8-2.5-1.8c-1.3,0-2.1,0.6-2.1,1.6c0,1,0.6,1.4,2.8,1.9
				c3.8,0.9,4.6,2.3,4.6,4.1c0,2.3-1.7,3.9-5.1,3.9c-3.3,0-4.9-1.7-5.2-3.9H359.3z"/>
			<path class="st0" d="M386.6,501.8l-4.7-13.1h2.6l2.1,6.2c0.6,1.9,1.1,3.5,1.4,4.8h0c0.3-1.2,0.9-2.9,1.5-4.8l2.2-6.3h2.5
				l-4.8,13.1H386.6z"/>
			<path class="st0" d="M398.5,488.8v13.1h-2.5v-13.1H398.5z"/>
			<path class="st0" d="M404.5,490.8h-4.1v-2h10.6v2H407v11h-2.5V490.8z"/>
			<path class="st0" d="M413.6,498.5l-1.2,3.3h-2.4l4.5-13.1h3.1l4.7,13.1h-2.6l-1.2-3.3H413.6z M418,496.5c-1-3-1.7-4.8-2-5.9h0
				c-0.3,1.2-1,3.3-1.8,5.9H418z"/>
			<path class="st0" d="M434.8,497.9c-0.5,2.4-2.3,4.1-5.5,4.1c-4.1,0-6-2.9-6-6.7c0-3.6,2-6.8,6.1-6.8c3.3,0,5,1.9,5.4,4.1h-2.5
				c-0.3-1.2-1.1-2.2-3-2.2c-2.5,0-3.5,2.3-3.5,4.7c0,2.3,0.9,4.8,3.6,4.8c1.9,0,2.6-1.2,2.9-2.1H434.8z"/>
			<path class="st0" d="M439.5,488.8v7.8c0,2.7,1.4,3.5,2.9,3.5c1.7,0,2.9-0.9,2.9-3.5v-7.8h2.5v7.7c0,4.4-2.5,5.6-5.4,5.6
				c-2.9,0-5.4-1.2-5.4-5.5v-7.8H439.5z"/>
			<path class="st0" d="M453.3,496.4v5.4h-2.4v-13.1h5.5c2.8,0,4.3,1.5,4.3,3.6c0,1.7-1,2.7-2,3.1c0.8,0.3,1.8,1,1.8,3.3v0.6
				c0,0.9,0,1.9,0.2,2.5h-2.3c-0.2-0.6-0.3-1.6-0.3-2.9v-0.2c0-1.6-0.4-2.3-2.6-2.3H453.3z M453.3,494.4h2.5c1.7,0,2.4-0.6,2.4-1.9
				c0-1.2-0.8-1.8-2.3-1.8h-2.6V494.4z"/>
			<path class="st0" d="M465.8,498.5l-1.2,3.3h-2.4l4.5-13.1h3.1l4.7,13.1H472l-1.2-3.3H465.8z M470.2,496.5c-1-3-1.7-4.8-2-5.9h0
				c-0.3,1.2-1,3.3-1.8,5.9H470.2z"/>
			<path class="st0" d="M490.4,488.8h2.5v11h6.6l-0.3,2h-8.8V488.8z"/>
			<path class="st0" d="M504.2,498.5l-1.2,3.3h-2.4l4.5-13.1h3.1l4.7,13.1h-2.6l-1.2-3.3H504.2z M508.6,496.5c-1-3-1.7-4.8-2-5.9h0
				c-0.3,1.2-1,3.3-1.8,5.9H508.6z"/>
			<path class="st0" d="M521.9,496.4v5.4h-2.4v-13.1h5.5c2.8,0,4.3,1.5,4.3,3.6c0,1.7-1,2.7-2,3.1c0.8,0.3,1.8,1,1.8,3.3v0.6
				c0,0.9,0,1.9,0.2,2.5h-2.3c-0.2-0.6-0.3-1.6-0.3-2.9v-0.2c0-1.6-0.4-2.3-2.6-2.3H521.9z M521.9,494.4h2.5c1.7,0,2.4-0.6,2.4-1.9
				c0-1.2-0.8-1.8-2.3-1.8h-2.6V494.4z"/>
			<path class="st0" d="M540.7,496h-6.3v3.8h7l-0.3,2h-9.1v-13.1h9v2h-6.6v3.2h6.3V496z"/>
			<path class="st0" d="M545.9,488.8v13.1h-2.5v-13.1H545.9z"/>
			<path class="st0" d="M549.2,501.8v-13.1h3.1c1.7,3,5.1,8.7,5.7,10.1h0c-0.1-1.5-0.1-3.7-0.1-5.8v-4.3h2.2v13.1h-2.9
				c-1.5-2.7-5.2-9.1-5.9-10.5h0c0.1,1.3,0.1,3.8,0.1,6.1v4.4H549.2z"/>
			<path class="st0" d="M565.6,498.5l-1.2,3.3h-2.4l4.5-13.1h3.1l4.7,13.1h-2.6l-1.2-3.3H565.6z M570,496.5c-1-3-1.7-4.8-2-5.9h0
				c-0.3,1.2-1,3.3-1.8,5.9H570z"/>
			<path class="st0" d="M590.2,488.8h5.3c2.7,0,4.5,1.5,4.5,4c0,2.7-2,4.1-4.6,4.1h-2.7v5.1h-2.5V488.8z M592.7,494.8h2.5
				c1.5,0,2.4-0.6,2.4-2c0-1.4-1-2-2.3-2h-2.5V494.8z"/>
			<path class="st0" d="M610.9,496h-6.3v3.8h7l-0.3,2h-9.1v-13.1h9v2h-6.6v3.2h6.3V496z"/>
			<path class="st0" d="M613.7,501.8v-13.1h3.1c1.7,3,5.1,8.7,5.7,10.1h0c-0.1-1.5-0.1-3.7-0.1-5.8v-4.3h2.2v13.1h-2.9
				c-1.5-2.7-5.2-9.1-5.9-10.5h0c0.1,1.3,0.1,3.8,0.1,6.1v4.4H613.7z M615.9,487.5v-0.6c0-1.5,0.7-2,1.8-2c1.2,0,2.3,0.9,2.9,0.9
				c0.3,0,0.5-0.2,0.5-0.7v-0.2h1.5v0.4c0,1.7-0.7,2.2-1.8,2.2c-1,0-2.2-0.9-2.9-0.9c-0.3,0-0.5,0.1-0.5,0.5v0.3H615.9z"/>
			<path class="st0" d="M630.2,498.5l-1.2,3.3h-2.4l4.5-13.1h3.1l4.7,13.1h-2.6l-1.2-3.3H630.2z M634.6,496.5c-1-3-1.7-4.8-2-5.9h0
				c-0.3,1.2-1,3.3-1.8,5.9H634.6z"/>
			<path class="st0" d="M640.7,488.8h2.5v11h6.6l-0.3,2h-8.8V488.8z"/>
			<path class="st0" d="M663.1,495.2c0,3.6-2.1,6.8-6.3,6.8c-4,0-6.2-3-6.2-6.7c0-3.8,2.3-6.7,6.3-6.7
				C660.7,488.6,663.1,491.3,663.1,495.2z M653.2,495.2c0,2.6,1.2,4.8,3.7,4.8c2.7,0,3.7-2.2,3.7-4.7c0-2.6-1.1-4.7-3.7-4.7
				C654.3,490.6,653.2,492.6,653.2,495.2z"/>
			<path class="st0" d="M665.7,488.8h2.5v11h6.6l-0.3,2h-8.8V488.8z"/>
			<path class="st0" d="M685.2,496h-6.3v3.8h7l-0.3,2h-9.1v-13.1h9v2h-6.6v3.2h6.3V496z"/>
			<path class="st0" d="M688,501.8v-13.1h3.1c1.7,3,5.1,8.7,5.7,10.1h0c-0.1-1.5-0.1-3.7-0.1-5.8v-4.3h2.2v13.1h-2.9
				c-1.5-2.7-5.2-9.1-5.9-10.5h0c0.1,1.3,0.1,3.8,0.1,6.1v4.4H688z"/>
		</g>
	</g>
	<path class="st0" d="M240,490.9l1.1,2.7c0.1,0.2,0.2,0.3,0.4,0.3l2.9,0.2l-2.2,1.9c-0.1,0.1-0.2,0.3-0.1,0.4l0.7,2.9l-2.5-1.5
		c-0.1-0.1-0.3-0.1-0.5,0l-2.5,1.5l0.7-2.9c0-0.2,0-0.3-0.1-0.4l-2.2-1.9l2.9-0.2c0.2,0,0.3-0.1,0.4-0.3L240,490.9z"/>
	<path class="st0" d="M374.5,491.4l1.1,2.7c0.1,0.2,0.2,0.3,0.4,0.3l2.9,0.2l-2.2,1.9c-0.1,0.1-0.2,0.3-0.1,0.4l0.7,2.9l-2.5-1.5
		c-0.1-0.1-0.3-0.1-0.5,0l-2.5,1.5l0.7-2.9c0-0.2,0-0.3-0.1-0.4l-2.2-1.9l2.9-0.2c0.2,0,0.3-0.1,0.4-0.3L374.5,491.4z"/>
	<path class="st0" d="M482.1,491.5l1.1,2.7c0.1,0.2,0.2,0.3,0.4,0.3l2.9,0.2l-2.2,1.9c-0.1,0.1-0.2,0.3-0.1,0.4l0.7,2.9l-2.5-1.5
		c-0.1-0.1-0.3-0.1-0.5,0l-2.5,1.5l0.7-2.9c0-0.2,0-0.3-0.1-0.4l-2.2-1.9l2.9-0.2c0.2,0,0.3-0.1,0.4-0.3L482.1,491.5z"/>
	<path class="st0" d="M580.8,491.8l1.1,2.7c0.1,0.2,0.2,0.3,0.4,0.3l2.9,0.2l-2.2,1.9c-0.1,0.1-0.2,0.3-0.1,0.4l0.7,2.9l-2.5-1.5
		c-0.1-0.1-0.3-0.1-0.5,0l-2.5,1.5l0.7-2.9c0-0.2,0-0.3-0.1-0.4l-2.2-1.9l2.9-0.2c0.2,0,0.3-0.1,0.4-0.3L580.8,491.8z"/>
</g>
</svg>
